# 3ds Max Wavefront OBJ Exporter v0.97b - (c)2007 guruware
# File Created: 27.01.2018 12:53:25

mtllib Rock_Classic.mtl

#
# object Box002
#

v  3.5418 17.1701 3.1940
v  5.4024 19.1918 -1.4206
v  -6.5109 20.4270 -1.0768
v  -1.2978 17.5941 3.1940
v  -6.5109 0.0000 13.0396
v  1.7322 0.0000 15.9007
v  1.4936 6.9703 13.5149
v  -4.3099 6.9703 11.6230
v  8.9082 0.0000 3.1940
v  12.9223 0.0000 0.0233
v  8.0329 10.4102 -0.6986
v  6.9063 7.7701 3.1940
v  5.0493 0.0000 -12.5350
v  -6.5109 0.0000 -12.5350
v  -4.7657 7.7701 -11.0585
v  3.6524 7.7701 -11.0585
v  -16.3919 0.0000 -1.0876
v  -13.3021 0.0000 5.3005
v  -14.2444 10.3021 3.9362
v  -15.0768 10.6837 -1.0876
v  3.5376 18.7998 -5.3100
v  3.3210 13.4540 -9.5821
v  -4.2484 15.5402 -9.5821
v  -5.7806 20.4902 -5.2560
v  -4.1695 16.3964 6.9103
v  5.3915 14.3160 6.9103
v  10.8488 0.0000 -5.6541
v  6.2999 10.2142 -5.4821
v  4.4348 11.8602 10.2063
v  7.2971 6.9703 11.6230
v  -7.3414 0.0000 3.1940
v  -6.0350 6.9703 6.7002
v  -10.2142 16.3034 -3.1940
v  -9.1161 8.1517 -3.1940
v  -3.2128 13.9405 10.2063
v  0.6110 12.1458 12.0851
v  -8.2907 13.7586 6.0960
v  -11.0439 14.2918 2.7431
v  -9.4097 10.7303 7.1377
v  -6.4560 8.1982 5.0521
v  -11.0654 14.8429 -0.3189
v  9.9753 0.0000 13.0396
v  -10.4311 0.0000 -3.1940
v  -9.2420 0.0000 6.2947
# 44 vertices

vn 0.0789 0.9010 0.4266
vn 0.0924 0.8918 0.4430
vn 0.1047 0.8829 0.4578
vn 0.0977 0.8880 0.4493
vn -0.3144 0.2834 0.9060
vn 0.0057 0.3157 0.9488
vn 0.0250 0.3201 0.9471
vn -0.3116 0.2589 0.9143
vn 0.6121 0.1577 0.7749
vn 0.9073 0.3696 0.2006
vn 0.9303 0.3584 0.0775
vn 0.7818 0.3306 0.5287
vn 0.0000 0.1867 -0.9824
vn 0.0157 0.2021 -0.9792
vn -0.9323 0.0182 0.3611
vn -0.5960 0.0516 0.8013
vn -0.7812 0.3168 0.5380
vn -0.9030 0.3939 0.1717
vn 0.1076 0.6180 -0.7788
vn 0.1376 0.6419 -0.7544
vn 0.1870 0.6786 -0.7103
vn 0.1487 0.6504 -0.7449
vn 0.0814 0.9286 0.3621
vn 0.1336 0.8778 0.4600
vn 0.1787 0.8213 0.5418
vn 0.1561 0.8511 0.5012
vn 0.8272 0.3512 -0.4387
vn 0.7400 0.2516 -0.6237
vn 0.7966 0.2680 -0.5418
vn 0.8567 0.3026 -0.4176
vn 0.9214 0.3298 -0.2053
vn 0.9776 0.2082 0.0317
vn 0.9417 0.2966 0.1589
vn 0.9222 0.3849 -0.0375
vn 0.9563 0.2924 0.0091
vn -0.9827 0.1843 0.0185
vn -0.9572 0.2277 0.1785
vn -0.9053 0.2823 0.3173
vn -0.9465 0.1663 0.2767
vn -0.9028 0.3475 -0.2533
vn -0.7232 0.0842 -0.6855
vn -0.7757 0.1429 -0.6148
vn -0.8731 0.1849 -0.4512
vn -0.8366 0.0771 -0.5423
vn -0.7095 0.6955 -0.1135
vn 0.1539 0.9812 -0.1166
vn 0.1745 0.9678 -0.1812
vn 0.1182 0.9930 -0.0084
vn 0.1040 0.9940 0.0332
vn -0.5896 0.1193 0.7988
vn -0.6561 0.3712 -0.6571
vn 0.1839 0.8151 0.5494
vn 0.0977 0.8114 0.5762
vn 0.2518 0.8489 0.4647
vn 0.2151 0.8073 0.5495
vn 0.1669 0.7668 0.6198
vn -0.6534 0.4507 0.6082
vn -0.6716 0.6288 0.3918
vn -0.5871 0.2644 0.7651
vn -0.9127 0.1806 0.3666
vn -0.9073 0.1654 0.3866
vn -0.9328 0.1263 0.3375
vn 0.2959 0.3514 0.8882
vn 0.3594 0.3650 0.8589
vn -0.0203 0.2778 0.9604
vn 0.9502 0.3090 -0.0415
vn 0.8386 0.2924 0.4597
vn 0.0268 0.2128 -0.9767
vn 0.0702 0.2546 -0.9645
vn -0.7256 0.6764 0.1268
vn 0.8656 0.2397 -0.4396
vn 0.8583 0.2847 -0.4269
vn 0.9354 0.3388 -0.1014
vn 0.9550 0.2910 -0.0581
vn -0.8878 0.2702 -0.3726
vn -0.8782 0.2011 -0.4339
vn -0.3417 0.0490 0.9385
vn 0.6923 -0.1276 0.7103
vn 0.1773 -0.1248 0.9762
vn -0.4011 0.8913 0.2115
vn -0.3466 0.9021 0.2572
vn -0.5614 0.1832 -0.8070
vn -0.3243 0.0453 -0.9449
vn 0.3125 0.3030 0.9003
vn -0.3360 0.2381 0.9113
# 85 vertex normals

vt 0.5837 0.4064 0.0000
vt 0.5393 0.4740 0.0000
vt 0.3755 0.3622 0.0000
vt 0.4595 0.2792 0.0000
vt 0.9793 0.2796 0.0000
vt 0.9552 0.4806 0.0000
vt 0.8402 0.4245 0.0000
vt 0.8556 0.2860 0.0000
vt 0.7517 0.7965 0.0000
vt 0.6879 0.8928 0.0000
vt 0.6051 0.6537 0.0000
vt 0.6786 0.6357 0.0000
vt 0.4058 0.9468 0.0000
vt 0.2058 0.8263 0.0000
vt 0.2933 0.6924 0.0000
vt 0.4267 0.7732 0.0000
vt 0.0275 0.4417 0.0000
vt 0.0317 0.2415 0.0000
vt 0.1955 0.2921 0.0000
vt 0.1932 0.3888 0.0000
vt 0.4917 0.5158 0.0000
vt 0.4515 0.6549 0.0000
vt 0.3589 0.5566 0.0000
vt 0.3718 0.4270 0.0000
vt 0.6003 0.2871 0.0000
vt 0.6761 0.2297 0.0000
vt 0.6624 0.4560 0.0000
vt 0.5772 0.9421 0.0000
vt 0.5271 0.6996 0.0000
vt 0.7311 0.4539 0.0000
vt 0.7994 0.5480 0.0000
vt 0.9460 0.0567 0.0000
vt 0.8413 0.1671 0.0000
vt 0.9456 0.0566 0.0000
vt 0.2910 0.3936 0.0000
vt 0.2052 0.5269 0.0000
vt 0.7354 0.2809 0.0000
vt 0.7614 0.3721 0.0000
vt 0.2983 0.2090 0.0000
vt 0.2782 0.2963 0.0000
vt 0.2388 0.1862 0.0000
vt 0.8146 0.1331 0.0000
vt 0.2788 0.3629 0.0000
vt 0.8922 0.6672 0.0000
vt 0.0852 0.6115 0.0000
vt 0.0619 0.1301 0.0000
vt 0.0787 0.0459 0.0000
vt 0.2239 0.0980 0.0000
vt 0.3768 0.1763 0.0000
# 49 texture coords

g Box002
usemtl wire_087225087
s 1
f 1/1/1 2/2/2 3/3/3 4/4/4 
s 2
f 5/5/5 6/6/6 7/7/7 8/8/8 
f 9/9/9 10/10/10 11/11/11 12/12/12 
s 4
f 13/13/13 14/14/13 15/15/13 16/16/14 
f 17/17/15 18/18/16 19/19/17 20/20/18 
s 1
f 21/21/19 22/22/20 23/23/21 24/24/22 
s 8
f 4/25/23 25/26/24 26/27/25 1/1/26 
s 2
f 27/28/27 13/13/28 16/16/29 28/29/30 
s 4
f 1/1/31 26/27/32 29/30/33 30/31/34 12/12/35 
f 31/32/36 5/5/37 8/8/38 32/33/39 31/34/40 
s 2
f 33/35/41 23/23/42 15/15/43 34/36/44 
s 8
f 24/24/45 33/35/45 3/3/45 
s 16
f 2/2/46 21/21/47 24/24/48 3/3/49 
s 2
f 10/10/10 27/28/27 28/29/30 11/11/11 
s 4
f 4/4/50 3/3/50 33/35/50 
s 2
f 33/35/41 24/24/51 23/23/42 
s 1
f 25/26/52 35/37/53 36/38/54 29/30/55 26/27/56 
s 4
f 37/39/57 38/40/58 19/19/17 39/41/59 
f 35/37/60 25/26/61 40/42/62 32/33/39 
s 2
f 30/31/63 29/30/64 36/38/65 7/7/7 
f 11/11/11 2/2/66 1/1/67 12/12/12 
s 4
f 15/15/13 23/23/68 22/22/69 16/16/14 
f 19/19/17 38/40/58 41/43/70 20/20/18 
s 2
f 16/16/29 22/22/71 21/21/72 28/29/30 
s 4
f 30/31/34 42/44/73 9/9/74 12/12/35 
f 8/8/38 35/37/60 32/33/39 
s 2
f 15/15/43 14/14/75 43/45/76 34/36/44 
f 28/29/30 21/21/72 2/2/66 11/11/11 
s 4
f 19/19/17 18/18/16 44/46/77 39/41/59 
f 40/42/62 31/34/40 32/33/39 
s off
f 31/47/78 40/48/78 39/41/78 44/46/78 
f 40/48/79 25/49/79 37/39/79 39/41/79 
f 25/49/80 4/4/80 38/40/80 37/39/80 
f 4/4/81 33/35/81 41/43/81 38/40/81 
f 33/35/82 34/36/82 20/20/82 41/43/82 
f 34/36/83 43/45/83 17/17/83 20/20/83 
s 2
f 6/6/6 42/44/84 30/31/63 7/7/7 
f 36/38/65 35/37/85 8/8/8 7/7/7 
# 33 polygons - 5 triangles

